# xmcd CD database file
#
# Track frame offsets:
#	150
#	29520
#	82833
#	125103
#	173720
#	192845
#	220158
#	251603
#	280860
#
# Disc length: 4104 seconds
#
# Revision: 0
# Processed by: cddbd v1.5.2PL0 Copyright (c) Steve Scherf et al.
# Submitted via: CDex 1.70beta2
#
DISCID=7b100609
DTITLE=The Cecilia Coleman Quintet - Young and Foolish
DYEAR=1994
DGENRE=Jazz
TTITLE0=Monsters
TTITLE1=Divine
TTITLE2=Somalia
TTITLE3=The Real Thing
TTITLE4=Celia
TTITLE5=House Of Cards
TTITLE6=Slippin'
TTITLE7=After You
TTITLE8=Young and Foolish
EXTD=YEAR: 1994
EXTT0=
EXTT1=
EXTT2=
EXTT3=
EXTT4=
EXTT5=
EXTT6=
EXTT7=
EXTT8=
PLAYORDER=
